<?xml version="1.0" encoding="UTF-8" standalone="no"?>
<!-- Created with Inkscape (http://www.inkscape.org/) -->

<svg
   xmlns:dc="http://purl.org/dc/elements/1.1/"
   xmlns:cc="http://creativecommons.org/ns#"
   xmlns:rdf="http://www.w3.org/1999/02/22-rdf-syntax-ns#"
   xmlns:svg="http://www.w3.org/2000/svg"
   xmlns="http://www.w3.org/2000/svg"
   xmlns:sodipodi="http://sodipodi.sourceforge.net/DTD/sodipodi-0.dtd"
   xmlns:inkscape="http://www.inkscape.org/namespaces/inkscape"
   version="1.1"
   id="svg10"
   xml:space="preserve"
   width="1122.5187"
   height="793.70667"
   viewBox="0 0 1122.5187 793.70667"
   sodipodi:docname="capaBeHive.svg"
   inkscape:version="0.92.4 (5da689c313, 2019-01-14)"><metadata
     id="metadata16"><rdf:RDF><cc:Work
         rdf:about=""><dc:format>image/svg+xml</dc:format><dc:type
           rdf:resource="http://purl.org/dc/dcmitype/StillImage" /><dc:title></dc:title></cc:Work></rdf:RDF></metadata><defs
     id="defs14"><clipPath
       clipPathUnits="userSpaceOnUse"
       id="clipPath26"><path
         d="m 0,0.001 h 841.889 v 595.28 H 0 Z"
         id="path24"
         inkscape:connector-curvature="0" /></clipPath><clipPath
       clipPathUnits="userSpaceOnUse"
       id="clipPath34"><path
         d="M 0,595.28 H 841.889 V 9.76562e-4 H 0 Z"
         id="path32"
         inkscape:connector-curvature="0" /></clipPath><clipPath
       clipPathUnits="userSpaceOnUse"
       id="clipPath48"><path
         d="M 478.571,310.948 H 654.577 V 276.332 H 478.571 Z"
         id="path46"
         inkscape:connector-curvature="0" /></clipPath><clipPath
       clipPathUnits="userSpaceOnUse"
       id="clipPath64"><path
         d="M 487.191,508.401 H 643.004 V 407.612 H 487.191 Z"
         id="path62"
         inkscape:connector-curvature="0" /></clipPath><clipPath
       clipPathUnits="userSpaceOnUse"
       id="clipPath80"><path
         d="M 487.191,179.67 H 643.004 V 78.8789 H 487.191 Z"
         id="path78"
         inkscape:connector-curvature="0" /></clipPath><clipPath
       clipPathUnits="userSpaceOnUse"
       id="clipPath96"><path
         d="M 698.799,468.706 H 984.891 V 128.524 H 698.799 Z"
         id="path94"
         inkscape:connector-curvature="0" /></clipPath><clipPath
       clipPathUnits="userSpaceOnUse"
       id="clipPath124"><path
         d="M 86.147,376.717 H 359.452 V 218.563 H 86.147 Z"
         id="path122"
         inkscape:connector-curvature="0" /></clipPath></defs><sodipodi:namedview
     pagecolor="#ffffff"
     bordercolor="#666666"
     borderopacity="1"
     objecttolerance="10"
     gridtolerance="10"
     guidetolerance="10"
     inkscape:pageopacity="0"
     inkscape:pageshadow="2"
     inkscape:window-width="1366"
     inkscape:window-height="715"
     id="namedview12"
     showgrid="false"
     inkscape:zoom="0.34395579"
     inkscape:cx="595.32028"
     inkscape:cy="338.94744"
     inkscape:window-x="-8"
     inkscape:window-y="-8"
     inkscape:window-maximized="1"
     inkscape:current-layer="g18" /><g
     id="g18"
     inkscape:groupmode="layer"
     inkscape:label="Manual_behive"
     transform="matrix(1.3333333,0,0,-1.3333333,0,793.70667)"><g
       id="g20"><g
         id="g22"
         clip-path="url(#clipPath26)"><g
           id="g28"><g
             id="g30" /><g
             id="g40"><g
               clip-path="url(#clipPath34)"
               id="g38"><path
                 d="M 841.889,0.001 H 0 V 595.28 h 841.889 z"
                 style="fill:#231f20;fill-opacity:1;fill-rule:nonzero;stroke:none"
                 id="path36"
                 inkscape:connector-curvature="0" /></g></g></g><g
           id="g42"><g
             id="g44" /><g
             id="g56"><g
               clip-path="url(#clipPath48)"
               id="g54"
               style="opacity:0.97999603"><g
                 transform="translate(478.5713,293.6426)"
                 id="g52"><path
                   d="M 0,0 C 0,9.582 7.718,17.65 17.291,17.294 L 153.92,12.155 c 9.572,-0.36 22.086,-4.001 22.086,-12.155 0,-8.153 -12.856,-11.432 -22.43,-11.815 L 17.291,-17.298 C 7.718,-17.678 0,-9.581 0,0"
                   style="fill:#f6f6f6;fill-opacity:1;fill-rule:nonzero;stroke:none"
                   id="path50"
                   inkscape:connector-curvature="0" /></g></g></g></g><g
           id="g58"><g
             id="g60" /><g
             id="g72"><g
               clip-path="url(#clipPath64)"
               id="g70"
               style="opacity:0.97999603"><g
                 transform="translate(489.5645,499.603)"
                 id="g68"><path
                   d="m 0,0 c 4.792,8.295 15.51,11.429 23.62,6.328 l 115.759,-72.762 c 8.11,-5.097 17.124,-14.509 13.048,-21.569 -4.075,-7.061 -16.847,-3.469 -25.33,0.983 L 6.329,-23.622 C -2.152,-19.169 -4.791,-8.298 0,0"
                   style="fill:#ffffff;fill-opacity:1;fill-rule:nonzero;stroke:none"
                   id="path66"
                   inkscape:connector-curvature="0" /></g></g></g></g><g
           id="g74"><g
             id="g76" /><g
             id="g88"><g
               clip-path="url(#clipPath80)"
               id="g86"
               style="opacity:0.97999603"><g
                 transform="translate(489.5645,87.6787)"
                 id="g84"><path
                   d="m 0,0 c 4.792,-8.298 15.51,-11.429 23.62,-6.331 l 115.759,72.762 c 8.11,5.1 17.124,14.512 13.048,21.577 -4.075,7.054 -16.847,3.465 -25.33,-0.987 L 6.329,23.618 C -2.152,19.17 -4.791,8.295 0,0"
                   style="fill:#e8e8e7;fill-opacity:1;fill-rule:nonzero;stroke:none"
                   id="path82"
                   inkscape:connector-curvature="0" /></g></g></g></g><g
           id="g90"><g
             id="g92" /><g
             id="g104"><g
               clip-path="url(#clipPath96)"
               id="g102"
               style="opacity:0.97999603"><g
                 transform="translate(841.8437,440.5474)"
                 id="g100"><path
                   d="m 0,0 c 13.213,0 107.805,-58.675 114.414,-70.967 6.603,-12.292 6.603,-129.642 0,-141.934 C 107.805,-225.186 13.213,-283.862 0,-283.862 c -13.206,0 -107.802,58.672 -114.408,70.961 -6.608,12.292 -6.608,129.642 0,141.934 C -107.802,-58.675 -13.206,0 0,0 m 0,28.159 c -15.834,0 -129.187,-70.319 -137.109,-85.047 -7.914,-14.728 -7.914,-155.362 0,-170.085 7.922,-14.735 121.28,-85.05 137.109,-85.05 15.832,0 129.195,70.315 137.109,85.05 7.917,14.723 7.917,155.357 0,170.085 C 129.195,-42.16 15.832,28.159 0,28.159"
                   style="fill:#facc0b;fill-opacity:1;fill-rule:nonzero;stroke:none"
                   id="path98"
                   inkscape:connector-curvature="0" /></g></g></g></g><g
           id="g106"
           transform="translate(958.2705,235.7998)"><path
             d="m 0,0 c -0.585,-3.881 -1.247,-6.736 -2.013,-8.153 -6.609,-12.289 -101.201,-70.961 -114.414,-70.961 -13.065,0 -105.679,57.36 -114.101,70.512 l -18.655,-18.654 c 22.536,-21.394 118.298,-80.019 132.756,-80.019 15.839,0 129.196,70.314 137.113,85.049 0.155,0.286 0.295,0.705 0.448,1.089 z"
             style="fill:#a2861f;fill-opacity:1;fill-rule:nonzero;stroke:none"
             id="path108"
             inkscape:connector-curvature="0" /></g><g
           id="g110"
           transform="translate(958.2705,361.5923)"><path
             d="m 0,0 c -0.585,3.881 -1.247,6.74 -2.013,8.154 -6.609,12.288 -101.201,70.963 -114.414,70.963 -13.065,0 -105.679,-57.367 -114.101,-70.515 l -18.655,18.654 c 22.536,21.394 118.298,80.02 132.756,80.02 15.839,0 129.196,-70.315 137.113,-85.047 0.155,-0.285 0.295,-0.708 0.448,-1.089 z"
             style="fill:#fbca07;fill-opacity:1;fill-rule:nonzero;stroke:none"
             id="path112"
             inkscape:connector-curvature="0" /></g><g
           id="g114"
           transform="translate(402.3418,404.3086)"><path
             d="m 0,0 v -145.645 -67.412 c 0,-4.837 7.5,-4.837 7.5,0 V -67.413 0 C 7.5,4.836 0,4.836 0,0"
             style="fill:#ffffff;fill-opacity:1;fill-rule:nonzero;stroke:none"
             id="path116"
             inkscape:connector-curvature="0" /></g><g
           id="g118"><g
             id="g120" /><g
             id="g136"><g
               clip-path="url(#clipPath124)"
               id="g134"
               style="opacity:0.97999603"><g
                 aria-label="î€anual de 
identidade 
visual"
                 transform="matrix(1,0,0,-1,86.147,338.8901)"
                 style="font-variant:normal;font-weight:normal;font-stretch:normal;font-size:45.16730118px;font-family:'Nasalization Rg';-inkscape-font-specification:NasalizationRg-Regular;writing-mode:lr-tb;fill:#facc0b;fill-opacity:1;fill-rule:nonzero;stroke:none"
                 id="text132"><path
                   d="M 6.5492587,0 H 0.85817872 L 10.298145,-25.384023 q 0.903346,-2.619704 2.484201,-4.110225 1.626023,-1.535688 4.6974,-1.535688 3.387547,0 5.058737,1.851859 1.716358,1.806692 1.716358,4.787734 v 18.0217535 q 0,0.7678442 0.406505,1.2646845 0.451673,0.451673 1.129183,0.451673 1.264684,0 1.716357,-1.2646845 l 7.407438,-19.4671065 q 0.903346,-2.619704 2.484201,-4.110225 1.626023,-1.535688 4.6974,-1.535688 3.387547,0 5.058737,1.851859 1.716358,1.806692 1.716358,4.787734 V 0 h -5.374909 v -24.119339 q 0,-0.813011 -0.451673,-1.264684 -0.406506,-0.496841 -1.084015,-0.496841 -0.587175,0 -1.038848,0.361339 -0.406506,0.361338 -0.632342,0.948513 l -7.407438,19.467107 q -0.903346,2.6197034 -2.529369,4.15539168 -1.626022,1.49052093 -4.697399,1.49052093 -3.387548,0 -5.058738,-1.80669201 -1.67119,-1.8518594 -1.67119,-4.8780686 v -17.976586 q 0,-0.813011 -0.451673,-1.264684 -0.451673,-0.496841 -1.129182,-0.496841 -0.632343,0 -1.038848,0.361339 -0.406506,0.361338 -0.632342,0.948513 z"
                   style=""
                   id="path138" /><path
                   d="m 71.228834,-23.848335 q 2.213198,0 3.794054,0.587175 1.580855,0.587175 2.574536,1.67119 1.038848,1.038848 1.490521,2.484202 0.451673,1.445353 0.451673,3.116543 v 11.2014911 q 0,1.3098517 -0.225837,2.2131977 -0.180669,0.9033461 -0.722677,1.490521 -0.542007,0.54200759 -1.535688,0.81301139 Q 76.106903,0 74.616382,0 H 63.460058 q -4.245726,0 -6.142753,-1.942194 -1.851859,-1.9421939 -1.851859,-5.3297415 0,-1.6260228 0.406506,-2.8907075 0.451673,-1.264684 1.400186,-2.122863 0.948513,-0.903346 2.484202,-1.355019 1.535688,-0.49684 3.748886,-0.49684 h 11.336992 v -1.806692 q 0,-1.400187 -0.858178,-2.3487 -0.813012,-0.948513 -2.800373,-0.948513 H 56.9108 v -4.607065 z m 2.303533,19.196103 q 1.309851,0 1.309851,-1.2195172 V -10.343312 H 63.59556 q -1.897026,0 -2.66487,0.7678442 -0.767845,0.7226768 -0.767845,2.0325285 0,1.3098517 0.767845,2.1228632 0.767844,0.7678441 2.574536,0.7678441 z"
                   style=""
                   id="path140" /><path
                   d="m 99.503563,-23.848335 q 6.097587,0 9.033457,2.755205 2.98105,2.710038 2.98105,7.678442 V 0 h -4.83291 v -13.414688 q 0,-2.84554 -1.71635,-4.336061 -1.67119,-1.490521 -5.465247,-1.490521 H 91.68962 q -0.587175,0 -0.587175,0.677509 V 0 h -4.787734 v -20.144616 q 0,-2.122863 0.767844,-2.890708 0.767844,-0.813011 2.574536,-0.813011 z"
                   style=""
                   id="path142" /><path
                   d="m 122.76473,-23.848335 v 14.2728672 q 0,2.1228631 1.49052,3.5230494 1.53569,1.4001864 4.38123,1.4001864 h 3.88438 q 2.84554,0 4.33607,-1.4001864 1.49052,-1.4001863 1.49052,-3.5230494 V -23.848335 h 4.6974 v 14.4535364 q 0,2.0776958 -0.67751,3.7940533 -0.63235,1.7163574 -1.9422,2.9810418 -1.30985,1.2195172 -3.25204,1.94219398 Q 135.27607,0 132.70153,0 h -4.42639 q -2.57454,0 -4.51673,-0.67750952 -1.89703,-0.72267678 -3.20688,-1.94219398 -1.30985,-1.2646844 -1.98736,-2.9810418 -0.63234,-1.7163575 -0.63234,-3.7940533 V -23.848335 Z"
                   style=""
                   id="path144" /><path
                   d="m 165.04132,-23.848335 q 2.2132,0 3.79405,0.587175 1.58086,0.587175 2.57454,1.67119 1.03885,1.038848 1.49052,2.484202 0.45167,1.445353 0.45167,3.116543 v 11.2014911 q 0,1.3098517 -0.22583,2.2131977 -0.18067,0.9033461 -0.72268,1.490521 -0.54201,0.54200759 -1.53569,0.81301139 Q 169.91939,0 168.42887,0 h -11.15633 q -4.24572,0 -6.14275,-1.942194 -1.85186,-1.9421939 -1.85186,-5.3297415 0,-1.6260228 0.40651,-2.8907075 0.45167,-1.264684 1.40018,-2.122863 0.94852,-0.903346 2.4842,-1.355019 1.53569,-0.49684 3.74889,-0.49684 h 11.33699 v -1.806692 q 0,-1.400187 -0.85818,-2.3487 -0.81301,-0.948513 -2.80037,-0.948513 h -14.27287 v -4.607065 z m 2.30353,19.196103 q 1.30985,0 1.30985,-1.2195172 v -4.4715628 h -11.24665 q -1.89703,0 -2.66488,0.7678442 -0.76784,0.7226768 -0.76784,2.0325285 0,1.3098517 0.76784,2.1228632 0.76785,0.7678441 2.57454,0.7678441 z"
                   style=""
                   id="path146" /><path
                   d="M 184.91492,-34.191647 V 0 h -4.78773 v -34.191647 z"
                   style=""
                   id="path148" /><path
                   d="m 228.41103,-34.191647 v 23.983837 q 0,5.1942396 -2.25837,7.7236084 Q 223.93947,0 219.64857,0 h -6.59442 q -4.78774,0 -7.58811,-2.9358746 -2.7552,-2.9358746 -2.7552,-8.9882934 0,-6.052418 2.7552,-8.988292 2.80037,-2.935875 7.58811,-2.935875 h 10.52398 v -10.343312 z m -10.16264,29.539415 q 2.8907,0 4.11022,-1.3550191 1.21952,-1.355019 1.21952,-4.4263959 v -8.807623 h -10.07231 q -3.11654,0 -4.5619,1.716357 -1.40018,1.716358 -1.40018,5.600745 0,3.8843884 1.40018,5.6007458 1.44536,1.6711902 4.5619,1.6711902 z"
                   style=""
                   id="path150" /><path
                   d="m 250.76885,-23.848335 q 4.24573,0 6.14275,1.942194 1.89703,1.897027 1.89703,5.374909 0,3.297213 -1.85186,5.103905 -1.85186,1.7615245 -6.23309,1.7615245 h -11.33699 v 1.7163575 q 0,1.4453536 0.81301,2.393867 0.85818,0.903346 2.84554,0.903346 h 14.58904 V 0 h -14.58904 q -2.25836,0 -3.83922,-0.58717492 -1.53569,-0.58717488 -2.57453,-1.62602288 -0.99369,-1.0840152 -1.44536,-2.4842015 -0.45167,-1.4453537 -0.45167,-3.1617111 v -8.1301146 q 0,-1.67119 0.45167,-3.116543 0.45167,-1.445354 1.44536,-2.484202 1.03884,-1.084015 2.57453,-1.67119 1.58086,-0.587175 3.83922,-0.587175 z m -11.38216,10.433647 h 11.20149 q 1.9422,0 2.71004,-0.767845 0.81301,-0.767844 0.81301,-2.077695 0,-1.355019 -0.81301,-2.168031 -0.81301,-0.813011 -2.57454,-0.813011 h -7.67844 q -1.98736,0 -2.84554,0.948513 -0.81301,0.948513 -0.81301,2.3487 z"
                   style=""
                   id="path152" /><path
                   d="M 3.4327149,54.20076 Z M 8.2204488,30.352425 V 54.20076 H 3.4327149 V 30.352425 Z m 0.045167,-8.988293 V 26.91971 H 3.4327149 v -5.555578 z"
                   style=""
                   id="path154" /><path
                   d="M 39.65689,20.009113 V 43.99295 q 0,5.194239 -2.258365,7.723608 -2.213198,2.484202 -6.504092,2.484202 h -6.594426 q -4.787734,0 -7.588106,-2.935875 -2.755206,-2.935874 -2.755206,-8.988293 0,-6.052418 2.755206,-8.988293 2.800372,-2.935874 7.588106,-2.935874 H 34.823988 V 20.009113 Z M 29.494247,49.548528 q 2.890707,0 4.110224,-1.355019 1.219517,-1.355019 1.219517,-4.426396 V 34.95949 H 24.75168 q -3.116543,0 -4.561897,1.716357 -1.400186,1.716357 -1.400186,5.600745 0,3.884388 1.400186,5.600746 1.445354,1.67119 4.561897,1.67119 z"
                   style=""
                   id="path156" /><path
                   d="m 62.014704,30.352425 q 4.245726,0 6.142753,1.942194 1.897027,1.897026 1.897027,5.374909 0,3.297213 -1.85186,5.103905 -1.851859,1.761524 -6.233087,1.761524 H 50.632544 v 1.716358 q 0,1.445354 0.813011,2.393867 0.858179,0.903346 2.84554,0.903346 H 68.880134 V 54.20076 H 54.291095 q -2.258365,0 -3.83922,-0.587175 -1.535688,-0.587175 -2.574536,-1.626023 -0.993681,-1.084015 -1.445354,-2.484201 -0.451673,-1.445354 -0.451673,-3.161712 v -8.130114 q 0,-1.67119 0.451673,-3.116544 0.451673,-1.445353 1.445354,-2.484201 1.038848,-1.084015 2.574536,-1.67119 1.580855,-0.587175 3.83922,-0.587175 z m -11.38216,10.433646 h 11.201491 q 1.942194,0 2.710038,-0.767844 0.813011,-0.767844 0.813011,-2.077696 0,-1.355019 -0.813011,-2.16803 -0.813012,-0.813011 -2.574536,-0.813011 h -7.678442 q -1.987361,0 -2.84554,0.948513 -0.813011,0.948513 -0.813011,2.3487 z"
                   style=""
                   id="path158" /><path
                   d="m 89.115082,30.352425 q 6.097586,0 9.03346,2.755205 2.981038,2.710038 2.981038,7.678441 V 54.20076 H 96.296683 V 40.786071 q 0,-2.84554 -1.716358,-4.33606 -1.67119,-1.490521 -5.465243,-1.490521 h -7.813943 q -0.587175,0 -0.587175,0.677509 V 54.20076 H 75.92623 V 34.056144 q 0,-2.122864 0.767844,-2.890708 0.767844,-0.813011 2.574536,-0.813011 z"
                   style=""
                   id="path160" /><path
                   d="m 108.7177,30.352425 v -5.645913 h 4.8329 v 5.645913 h 6.59442 v 4.607065 h -6.59442 v 11.291825 q 0,2.032528 0.72268,2.800373 0.76784,0.767844 2.4842,0.767844 h 3.29721 v 4.381228 h -4.29089 q -1.85186,0 -3.20688,-0.406506 -1.30985,-0.406506 -2.16803,-1.355019 -0.85818,-0.948513 -1.26469,-2.529369 -0.4065,-1.580855 -0.4065,-3.929555 V 34.95949 h -3.25205 v -4.607065 z"
                   style=""
                   id="path162" /><path
                   d="m 124.79725,54.20076 z m 4.78773,-23.848335 V 54.20076 h -4.78773 V 30.352425 Z m 0.0452,-8.988293 v 5.555578 h -4.8329 v -5.555578 z"
                   style=""
                   id="path164" /><path
                   d="M 161.02143,20.009113 V 43.99295 q 0,5.194239 -2.25837,7.723608 -2.2132,2.484202 -6.50409,2.484202 h -6.59443 q -4.78773,0 -7.5881,-2.935875 -2.75521,-2.935874 -2.75521,-8.988293 0,-6.052418 2.75521,-8.988293 2.80037,-2.935874 7.5881,-2.935874 h 10.52399 V 20.009113 Z m -10.16265,29.539415 q 2.89071,0 4.11023,-1.355019 1.21952,-1.355019 1.21952,-4.426396 V 34.95949 h -10.07231 q -3.11655,0 -4.5619,1.716357 -1.40019,1.716357 -1.40019,5.600745 0,3.884388 1.40019,5.600746 1.44535,1.67119 4.5619,1.67119 z"
                   style=""
                   id="path166" /><path
                   d="m 183.10823,30.352425 q 2.2132,0 3.79405,0.587175 1.58086,0.587175 2.57454,1.67119 1.03885,1.038848 1.49052,2.484201 0.45167,1.445354 0.45167,3.116544 v 11.201491 q 0,1.309852 -0.22583,2.213198 -0.18067,0.903346 -0.72268,1.490521 -0.54201,0.542007 -1.53569,0.813011 -0.94851,0.271004 -2.43903,0.271004 h -11.15633 q -4.24572,0 -6.14275,-1.942194 -1.85186,-1.942194 -1.85186,-5.329742 0,-1.626022 0.40651,-2.890707 0.45167,-1.264684 1.40018,-2.122863 0.94852,-0.903346 2.4842,-1.355019 1.53569,-0.49684 3.74889,-0.49684 h 11.33699 v -1.806692 q 0,-1.400187 -0.85818,-2.3487 -0.81301,-0.948513 -2.80037,-0.948513 h -14.27287 v -4.607065 z m 2.30353,19.196103 q 1.30985,0 1.30985,-1.219517 v -4.471563 h -11.24666 q -1.89702,0 -2.66487,0.767844 -0.76784,0.722677 -0.76784,2.032529 0,1.309851 0.76784,2.122863 0.76785,0.767844 2.57454,0.767844 z"
                   style=""
                   id="path168" /><path
                   d="M 222.76513,20.009113 V 43.99295 q 0,5.194239 -2.25837,7.723608 -2.2132,2.484202 -6.50409,2.484202 h -6.59443 q -4.78773,0 -7.5881,-2.935875 -2.75521,-2.935874 -2.75521,-8.988293 0,-6.052418 2.75521,-8.988293 2.80037,-2.935874 7.5881,-2.935874 h 10.52398 V 20.009113 Z m -10.16265,29.539415 q 2.89071,0 4.11023,-1.355019 1.21951,-1.355019 1.21951,-4.426396 V 34.95949 h -10.0723 q -3.11655,0 -4.5619,1.716357 -1.40019,1.716357 -1.40019,5.600745 0,3.884388 1.40019,5.600746 1.44535,1.67119 4.5619,1.67119 z"
                   style=""
                   id="path170" /><path
                   d="m 245.12293,30.352425 q 4.24573,0 6.14275,1.942194 1.89703,1.897026 1.89703,5.374909 0,3.297213 -1.85186,5.103905 -1.85186,1.761524 -6.23309,1.761524 h -11.33699 v 1.716358 q 0,1.445354 0.81301,2.393867 0.85818,0.903346 2.84554,0.903346 h 14.58904 v 4.652232 h -14.58904 q -2.25836,0 -3.83922,-0.587175 -1.53569,-0.587175 -2.57453,-1.626023 -0.99369,-1.084015 -1.44536,-2.484201 -0.45167,-1.445354 -0.45167,-3.161712 v -8.130114 q 0,-1.67119 0.45167,-3.116544 0.45167,-1.445353 1.44536,-2.484201 1.03884,-1.084015 2.57453,-1.67119 1.58086,-0.587175 3.83922,-0.587175 z m -11.38216,10.433646 h 11.20149 q 1.9422,0 2.71004,-0.767844 0.81301,-0.767844 0.81301,-2.077696 0,-1.355019 -0.81301,-2.16803 -0.81301,-0.813011 -2.57454,-0.813011 h -7.67844 q -1.98736,0 -2.84554,0.948513 -0.81301,0.948513 -0.81301,2.3487 z"
                   style=""
                   id="path172" /><path
                   d="m 5.9169165,84.553185 7.9494445,19.150935 q 0.271004,0.72268 1.17435,0.72268 0.948514,0 1.264685,-0.72268 l 8.265616,-19.150935 h 5.149072 l -9.214129,21.273795 q -0.767844,1.71636 -2.122863,2.43904 -1.309852,0.67751 -3.342381,0.67751 -2.077696,0 -3.432715,-0.72268 -1.309851,-0.72268 -1.9873608,-2.39387 L 0.85817872,84.553185 Z"
                   style=""
                   id="path174" /><path
                   d="M 34.010977,108.40152 Z M 38.798711,84.553185 V 108.40152 H 34.010977 V 84.553185 Z m 0.04517,-8.988293 v 5.555578 h -4.832901 v -5.555578 z"
                   style=""
                   id="path176" /><path
                   d="m 65.537754,84.553185 v 4.607064 H 52.348902 q -1.67119,0 -2.393867,0.67751 -0.722677,0.67751 -0.722677,2.032529 0,1.264684 0.677509,1.942193 0.722677,0.632343 2.710039,0.632343 h 5.600745 q 2.484201,0 4.065057,0.542007 1.626023,0.542008 2.529369,1.445354 0.948513,0.903346 1.309852,2.122863 0.361338,1.219517 0.361338,2.619702 0,1.58086 -0.451673,2.93588 -0.406506,1.30985 -1.355019,2.25836 -0.948513,0.94851 -2.439034,1.49052 -1.490521,0.54201 -3.568217,0.54201 H 44.805962 v -4.65223 h 13.866362 q 1.67119,0 2.393867,-0.58718 0.722677,-0.63234 0.722677,-2.03253 0,-1.445349 -0.813012,-2.032524 -0.767844,-0.632342 -2.574536,-0.632342 h -5.645913 q -2.484201,0 -4.065057,-0.542008 -1.580855,-0.587175 -2.529369,-1.535688 -0.903346,-0.993681 -1.264684,-2.258365 -0.361338,-1.264685 -0.361338,-2.619704 0,-3.206878 1.806692,-5.058738 1.806692,-1.897026 5.962083,-1.897026 z"
                   style=""
                   id="path178" /><path
                   d="m 76.829577,84.553185 v 14.272867 q 0,2.122868 1.490521,3.523048 1.535688,1.40019 4.381228,1.40019 h 3.884388 q 2.84554,0 4.336061,-1.40019 1.490521,-1.40018 1.490521,-3.523048 V 84.553185 h 4.697399 v 14.453536 q 0,2.077699 -0.677509,3.794049 -0.632342,1.71636 -1.942194,2.98105 -1.309852,1.21951 -3.252046,1.94219 -1.897026,0.67751 -4.471563,0.67751 h -4.426395 q -2.574536,0 -4.51673,-0.67751 -1.897027,-0.72268 -3.206879,-1.94219 -1.309851,-1.26469 -1.987361,-2.98105 -0.632342,-1.71635 -0.632342,-3.794049 V 84.553185 Z"
                   style=""
                   id="path180" /><path
                   d="m 119.10618,84.553185 q 2.21319,0 3.79405,0.587175 1.58086,0.587175 2.57454,1.67119 1.03884,1.038848 1.49052,2.484201 0.45167,1.445354 0.45167,3.116544 v 11.201495 q 0,1.30985 -0.22584,2.21319 -0.18067,0.90335 -0.72267,1.49052 -0.54201,0.54201 -1.53569,0.81302 -0.94852,0.271 -2.43904,0.271 H 111.3374 q -4.24573,0 -6.14275,-1.94219 -1.85186,-1.9422 -1.85186,-5.32975 0,-1.626019 0.4065,-2.890703 0.45168,-1.264684 1.40019,-2.122863 0.94851,-0.903346 2.4842,-1.355019 1.53569,-0.49684 3.74889,-0.49684 h 11.33699 v -1.806693 q 0,-1.400186 -0.85818,-2.348699 -0.81301,-0.948514 -2.80037,-0.948514 h -14.27287 v -4.607064 z m 2.30353,19.196105 q 1.30985,0 1.30985,-1.21952 V 98.058208 H 111.4729 q -1.89702,0 -2.66487,0.767844 -0.76784,0.722677 -0.76784,2.032528 0,1.30985 0.76784,2.12286 0.76785,0.76785 2.57454,0.76785 z"
                   style=""
                   id="path182" /><path
                   d="m 138.97979,74.209873 v 34.191647 h -4.78774 V 74.209873 Z"
                   style=""
                   id="path184" /></g></g></g></g></g></g></g></svg>